<?xml version="1.0" encoding="utf-8"?>
<!-- Generator: Adobe Illustrator 16.0.0, SVG Export Plug-In . SVG Version: 6.00 Build 0)  -->
<!DOCTYPE svg PUBLIC "-//W3C//DTD SVG 1.1//EN" "http://www.w3.org/Graphics/SVG/1.1/DTD/svg11.dtd">
<svg version="1.1" id="Layer_1" xmlns="http://www.w3.org/2000/svg" xmlns:xlink="http://www.w3.org/1999/xlink" x="0px" y="0px"
	 width="87px" height="87px" viewBox="0 0 87 87" enable-background="new 0 0 87 87" xml:space="preserve">
<path fill="#FFFFFF" d="M73.062,64.583c0-0.589-0.066-4.177-0.066-4.177c8.195-7.477,12.076-17.451,13.007-28.397l-0.223-0.447
	c-3.653-1.626-7.305-1.938-11.156-0.892l-0.223-0.224c0.929-1.392,1.471-2.568,1.561-4.238v-0.447
	c-5.678-3.035-10.466-4.745-16.8-5.901l-0.503-0.105c-5.008-9.388-13.932-16.08-23.748-19.205l-1.193,0.28
	c1.303,1.824,2.31,3.749,3.262,5.77c1.611,3.423,3.2,7.452,4.453,11.625l0.17,0.136l-3.344,0.176
	c-13.538,0.979-25.852,5.383-37.262,12.803c8.937-0.518,22.809,0.365,26.923,9.966c5.277-2.803,10.467-5.861,16.124-7.853
	l0.014,0.008c0.326,3.535-0.641,7.026-2.187,10.248c-4.8,10-17.782,14.182-29.049,15.745v0.335
	c7.697,8.254,19.856,12.159,30.796,12.075c0,0,0.334-10.186,13.826-13.076c3.123-0.669,4.117,0.49,4.117,0.49
	c3.245,18.024-18.396,27.172-18.396,27.172s22.98,0.669,36.59-19.857C79.755,66.591,73.062,66.591,73.062,64.583z M54.185,31.464
	c0,0,2.133,2.884,4.238,7.307l0.029,0.118c-1.203,0.724-1.833,0.845-3.016,0.929l-3.805-1.508c0.104-3.85-1.438-6.245-1.438-6.245
	S53.092,31.508,54.185,31.464z M41.827,58.783c4.719-6.412,7.293-11.437,8.604-15.314l0.209-0.695
	c2.09,0.479,3.395,1.597,4.797,3.291h0.223c1.268-1.322,3.794-3.66,4.24-3.961l0.198,0.604c0.851,2.277,1.584,4.782,2.01,7.398
	l0.242,1.812C52.811,57.953,41.827,58.783,41.827,58.783z M65.069,36.738c-0.365-1.434-0.795-2.88-1.285-4.382l-0.1-0.196
	c1.765,0.304,3.516,0.688,5.253,1.125c-0.758,1.886-1.929,3.062-3.685,4.021L65.069,36.738z M66.539,48.803l0.048-1.029
	c-0.062-2.803-0.338-5.37-0.818-7.904L65.7,39.314c0.431-0.154,0.149-0.089,0.551-0.193c4.519-1.188,7.257,0.474,7.257,0.474
	C71.778,43.34,69.325,46.366,66.539,48.803z"/>
</svg>
