<?xml version="1.0" encoding="utf-8"?>
<!-- Generator: Adobe Illustrator 16.0.0, SVG Export Plug-In . SVG Version: 6.00 Build 0)  -->
<!DOCTYPE svg PUBLIC "-//W3C//DTD SVG 1.1//EN" "http://www.w3.org/Graphics/SVG/1.1/DTD/svg11.dtd">
<svg version="1.1" id="Layer_1" xmlns="http://www.w3.org/2000/svg" xmlns:xlink="http://www.w3.org/1999/xlink" x="0px" y="0px"
	 width="290px" height="90px" viewBox="0 0 290 90" enable-background="new 0 0 290 90" xml:space="preserve">
<g>
	<g>
		<path class="lg_a" fill="#FFFFFF" d="M33.849,39.406H16.744l-4.451,9.695H5.798L25.568,6.675L44.64,49.102h-6.599L33.849,39.406z
			 M31.391,33.744l-5.926-13.573l-6.211,13.573H31.391z"/>
		<path class="lg_a" fill="#FFFFFF" d="M48.521,9.183l10.402,26.681l10.87-28.62l10.402,28.62L91.245,9.183h6.547L79.937,51.635L69.663,23.35
			L58.95,51.66L41.975,9.183H48.521z"/>
		<path class="lg_a" fill="#FFFFFF" d="M124.808,14.845H108.79v9.591h15.553v5.662H108.79v13.342h16.018v5.662h-22.047V9.183h22.047V14.845z"/>
		<path class="lg_a" fill="#FFFFFF" d="M155.317,15.104l-4.891,2.896c-0.916-1.586-1.785-2.62-2.613-3.103c-0.863-0.552-1.977-0.827-3.34-0.827
			c-1.672,0-3.061,0.475-4.166,1.423c-1.104,0.932-1.656,2.104-1.656,3.519c0,1.949,1.449,3.519,4.348,4.708l3.986,1.631
			c3.242,1.311,5.615,2.91,7.115,4.799c1.502,1.889,2.252,4.205,2.252,6.947c0,3.674-1.225,6.709-3.676,9.107
			c-2.467,2.414-5.529,3.621-9.186,3.621c-3.467,0-6.332-1.029-8.592-3.09c-2.225-2.059-3.613-4.949-4.166-8.674l6.107-1.344
			c0.275,2.344,0.76,3.965,1.449,4.861c1.242,1.723,3.053,2.584,5.434,2.584c1.881,0,3.441-0.627,4.684-1.885
			s1.863-2.852,1.863-4.779c0-0.775-0.107-1.486-0.322-2.133c-0.217-0.645-0.553-1.24-1.01-1.781
			c-0.457-0.543-1.049-1.051-1.773-1.525c-0.725-0.473-1.586-0.926-2.588-1.355l-3.855-1.602c-5.469-2.309-8.203-5.686-8.203-10.128
			c0-2.997,1.148-5.503,3.441-7.518c2.295-2.032,5.15-3.049,8.566-3.049C149.132,8.407,152.729,10.64,155.317,15.104z"/>
		<path class="lg_a" fill="#FFFFFF" d="M161.632,28.961c0-5.619,2.061-10.445,6.184-14.479c4.105-4.033,9.041-6.05,14.803-6.05
			c5.693,0,10.574,2.034,14.646,6.102c4.088,4.068,6.133,8.954,6.133,14.659c0,5.74-2.053,10.609-6.16,14.607
			c-4.123,4.016-9.1,6.023-14.93,6.023c-5.158,0-9.791-1.783-13.896-5.352C163.892,40.525,161.632,35.355,161.632,28.961z
			 M167.712,29.025c0,4.408,1.484,8.033,4.451,10.875c2.949,2.842,6.357,4.262,10.221,4.262c4.193,0,7.729-1.445,10.611-4.34
			c2.881-2.926,4.32-6.492,4.32-10.693c0-4.254-1.422-7.817-4.27-10.694c-2.83-2.893-6.332-4.34-10.506-4.34
			c-4.158,0-7.668,1.447-10.531,4.34C169.144,21.294,167.712,24.824,167.712,29.025z"/>
		<path class="lg_a" fill="#FFFFFF" d="M209.581,49.102l8.41-42.918l13.715,31.025l14.207-31.025l7.557,42.918h-6.186l-3.855-24.096
			l-11.826,25.932l-11.488-25.959l-4.297,24.123H209.581z"/>
		<path class="lg_a" fill="#FFFFFF" d="M283.979,14.845h-16.02v9.591h15.553v5.662H267.96v13.342h16.02v5.662h-22.049V9.183h22.049V14.845z"/>
	</g>
	<g>
		<g>
			<path class="lg_a" fill="#FFFFFF" d="M76.933,56.434v10.209c1.111-1.15,2.37-1.727,3.776-1.727c1.621,0,2.97,0.604,4.048,1.812
				c1.077,1.199,1.616,2.695,1.616,4.488c0,1.85-0.543,3.377-1.629,4.586c-1.077,1.199-2.439,1.801-4.084,1.801
				c-1.391,0-2.633-0.535-3.728-1.604v1.258h-2.776V56.434H76.933z M83.535,71.34c0-1.15-0.312-2.088-0.938-2.811
				c-0.634-0.74-1.428-1.111-2.382-1.111c-1.021,0-1.852,0.357-2.493,1.074c-0.634,0.707-0.95,1.627-0.95,2.762
				c0,1.166,0.312,2.1,0.938,2.799c0.625,0.715,1.447,1.072,2.468,1.072c0.962,0,1.76-0.357,2.394-1.072
				C83.214,73.328,83.535,72.424,83.535,71.34z"/>
			<path class="lg_a" fill="#FFFFFF" d="M112.304,56.434v20.824h-2.776V56.434H112.304z"/>
			<path class="lg_a" fill="#FFFFFF" d="M135.472,71.166c0-1.734,0.621-3.209,1.863-4.426s2.756-1.824,4.541-1.824
				c1.794,0,3.315,0.611,4.566,1.838c1.233,1.225,1.851,2.729,1.851,4.512c0,1.801-0.621,3.309-1.863,4.525
				c-1.251,1.207-2.785,1.812-4.603,1.812c-1.802,0-3.312-0.617-4.529-1.85C136.08,74.537,135.472,73.008,135.472,71.166z
				 M138.31,71.217c0,1.199,0.321,2.148,0.963,2.848c0.658,0.707,1.526,1.061,2.604,1.061c1.086,0,1.954-0.35,2.604-1.049
				c0.649-0.699,0.975-1.631,0.975-2.799c0-1.166-0.325-2.1-0.975-2.799c-0.659-0.707-1.526-1.061-2.604-1.061
				c-1.061,0-1.921,0.354-2.579,1.061S138.31,70.098,138.31,71.217z"/>
			<path class="lg_a" fill="#FFFFFF" d="M183.073,76.975c0,0.566-0.019,1.066-0.056,1.498c-0.037,0.43-0.089,0.811-0.154,1.139
				c-0.197,0.904-0.584,1.682-1.16,2.332c-1.086,1.248-2.579,1.873-4.479,1.873c-1.604,0-2.925-0.434-3.961-1.301
				c-1.069-0.893-1.687-2.123-1.852-3.693h2.789c0.107,0.592,0.284,1.049,0.531,1.369c0.575,0.748,1.414,1.123,2.517,1.123
				c2.032,0,3.049-1.242,3.049-3.725v-1.676c-1.103,1.125-2.374,1.689-3.813,1.689c-1.638,0-2.979-0.592-4.022-1.775
				c-1.054-1.201-1.58-2.701-1.58-4.502c0-1.75,0.489-3.238,1.469-4.463c1.053-1.299,2.443-1.947,4.171-1.947
				c1.514,0,2.772,0.562,3.776,1.689v-1.357h2.776V76.975z M180.407,71.283c0-1.164-0.312-2.096-0.938-2.793
				c-0.634-0.715-1.444-1.072-2.431-1.072c-1.054,0-1.885,0.391-2.493,1.17c-0.551,0.697-0.827,1.602-0.827,2.709
				c0,1.092,0.276,1.984,0.827,2.684c0.601,0.762,1.432,1.145,2.493,1.145c1.061,0,1.9-0.387,2.517-1.158
				C180.124,73.27,180.407,72.375,180.407,71.283z"/>
			<path class="lg_a" fill="#FFFFFF" d="M218.42,76.975c0,0.566-0.019,1.066-0.056,1.498c-0.037,0.43-0.089,0.811-0.154,1.139
				c-0.197,0.904-0.584,1.682-1.16,2.332c-1.086,1.248-2.579,1.873-4.479,1.873c-1.604,0-2.925-0.434-3.961-1.301
				c-1.069-0.893-1.687-2.123-1.852-3.693h2.789c0.107,0.592,0.284,1.049,0.531,1.369c0.575,0.748,1.414,1.123,2.517,1.123
				c2.032,0,3.049-1.242,3.049-3.725v-1.676c-1.103,1.125-2.374,1.689-3.813,1.689c-1.638,0-2.979-0.592-4.022-1.775
				c-1.054-1.201-1.58-2.701-1.58-4.502c0-1.75,0.489-3.238,1.469-4.463c1.053-1.299,2.443-1.947,4.171-1.947
				c1.514,0,2.772,0.562,3.776,1.689v-1.357h2.776V76.975z M215.754,71.283c0-1.164-0.312-2.096-0.938-2.793
				c-0.634-0.715-1.444-1.072-2.431-1.072c-1.054,0-1.885,0.391-2.493,1.17c-0.551,0.697-0.827,1.602-0.827,2.709
				c0,1.092,0.276,1.984,0.827,2.684c0.601,0.762,1.432,1.145,2.493,1.145c1.061,0,1.9-0.387,2.517-1.158
				C215.471,73.27,215.754,72.375,215.754,71.283z"/>
			<path class="lg_a" fill="#FFFFFF" d="M253.088,71.906h-8.613c0.073,0.986,0.395,1.771,0.962,2.355c0.567,0.574,1.296,0.863,2.185,0.863
				c0.69,0,1.263-0.164,1.715-0.494c0.444-0.328,0.95-0.938,1.519-1.824l2.344,1.307c-0.361,0.617-0.744,1.145-1.147,1.584
				s-0.835,0.803-1.296,1.086c-0.46,0.283-0.958,0.49-1.493,0.623c-0.534,0.131-1.114,0.197-1.739,0.197
				c-1.794,0-3.233-0.576-4.319-1.727c-1.086-1.16-1.629-2.697-1.629-4.611c0-1.898,0.526-3.436,1.58-4.611
				c1.061-1.158,2.468-1.738,4.22-1.738c1.769,0,3.167,0.562,4.195,1.689c1.021,1.117,1.53,2.666,1.53,4.648L253.088,71.906z
				 M250.237,69.639c-0.387-1.48-1.32-2.221-2.802-2.221c-0.337,0-0.653,0.053-0.95,0.154c-0.296,0.104-0.565,0.252-0.808,0.445
				c-0.243,0.191-0.451,0.424-0.624,0.695c-0.172,0.271-0.304,0.58-0.395,0.926H250.237z"/>
			<path class="lg_a" fill="#FFFFFF" d="M276.341,65.248h2.776v1.074c0.511-0.535,0.963-0.9,1.357-1.098c0.403-0.205,0.881-0.309,1.432-0.309
				c0.732,0,1.497,0.238,2.296,0.715l-1.271,2.539c-0.526-0.377-1.041-0.566-1.542-0.566c-1.515,0-2.271,1.143-2.271,3.428v6.227
				h-2.776V65.248z"/>
		</g>
	</g>
</g>
</svg>
