<svg xmlns="http://www.w3.org/2000/svg" id="Layer_1" width="290" height="90" viewBox="0 0 290 90"><style>.a{fill:#FFF;}</style><path d="M33.8 39.4H16.7l-4.5 9.7H5.8L25.6 6.7 44.6 49.1h-6.6L33.8 39.4zM31.4 33.7l-5.9-13.6 -6.2 13.6H31.4z" class="a"/><path d="M48.5 9.2l10.4 26.7 10.9-28.6 10.4 28.6L91.2 9.2h6.5L79.9 51.6 69.7 23.4 59 51.7 42 9.2H48.5z" class="a"/><path d="M124.8 14.8H108.8v9.6h15.6v5.7H108.8v13.3h16v5.7h-22V9.2h22V14.8z" class="a"/><path d="M155.3 15.1l-4.9 2.9c-0.9-1.6-1.8-2.6-2.6-3.1 -0.9-0.6-2-0.8-3.3-0.8 -1.7 0-3.1 0.5-4.2 1.4 -1.1 0.9-1.7 2.1-1.7 3.5 0 1.9 1.4 3.5 4.3 4.7l4 1.6c3.2 1.3 5.6 2.9 7.1 4.8 1.5 1.9 2.3 4.2 2.3 6.9 0 3.7-1.2 6.7-3.7 9.1 -2.5 2.4-5.5 3.6-9.2 3.6 -3.5 0-6.3-1-8.6-3.1 -2.2-2.1-3.6-4.9-4.2-8.7l6.1-1.3c0.3 2.3 0.8 4 1.4 4.9 1.2 1.7 3.1 2.6 5.4 2.6 1.9 0 3.4-0.6 4.7-1.9s1.9-2.9 1.9-4.8c0-0.8-0.1-1.5-0.3-2.1 -0.2-0.6-0.6-1.2-1-1.8 -0.5-0.5-1-1.1-1.8-1.5 -0.7-0.5-1.6-0.9-2.6-1.4l-3.9-1.6c-5.5-2.3-8.2-5.7-8.2-10.1 0-3 1.1-5.5 3.4-7.5 2.3-2 5.2-3 8.6-3C149.1 8.4 152.7 10.6 155.3 15.1z" class="a"/><path d="M161.6 29c0-5.6 2.1-10.4 6.2-14.5 4.1-4 9-6 14.8-6 5.7 0 10.6 2 14.6 6.1 4.1 4.1 6.1 9 6.1 14.7 0 5.7-2.1 10.6-6.2 14.6 -4.1 4-9.1 6-14.9 6 -5.2 0-9.8-1.8-13.9-5.4C163.9 40.5 161.6 35.4 161.6 29zM167.7 29c0 4.4 1.5 8 4.5 10.9 2.9 2.8 6.4 4.3 10.2 4.3 4.2 0 7.7-1.4 10.6-4.3 2.9-2.9 4.3-6.5 4.3-10.7 0-4.3-1.4-7.8-4.3-10.7 -2.8-2.9-6.3-4.3-10.5-4.3 -4.2 0-7.7 1.4-10.5 4.3C169.1 21.3 167.7 24.8 167.7 29z" class="a"/><path d="M209.6 49.1l8.4-42.9 13.7 31 14.2-31 7.6 42.9h-6.2l-3.9-24.1 -11.8 25.9 -11.5-26 -4.3 24.1H209.6z" class="a"/><path d="M284 14.8h-16v9.6h15.6v5.7H268v13.3h16v5.7h-22V9.2h22V14.8z" class="a"/><path d="M76.9 56.4v10.2c1.1-1.1 2.4-1.7 3.8-1.7 1.6 0 3 0.6 4 1.8 1.1 1.2 1.6 2.7 1.6 4.5 0 1.9-0.5 3.4-1.6 4.6 -1.1 1.2-2.4 1.8-4.1 1.8 -1.4 0-2.6-0.5-3.7-1.6v1.3h-2.8V56.4H76.9zM83.5 71.3c0-1.1-0.3-2.1-0.9-2.8 -0.6-0.7-1.4-1.1-2.4-1.1 -1 0-1.9 0.4-2.5 1.1 -0.6 0.7-0.9 1.6-0.9 2.8 0 1.2 0.3 2.1 0.9 2.8 0.6 0.7 1.4 1.1 2.5 1.1 1 0 1.8-0.4 2.4-1.1C83.2 73.3 83.5 72.4 83.5 71.3z" class="a"/><path d="M112.3 56.4v20.8h-2.8V56.4H112.3z" class="a"/><path d="M135.5 71.2c0-1.7 0.6-3.2 1.9-4.4s2.8-1.8 4.5-1.8c1.8 0 3.3 0.6 4.6 1.8 1.2 1.2 1.9 2.7 1.9 4.5 0 1.8-0.6 3.3-1.9 4.5 -1.3 1.2-2.8 1.8-4.6 1.8 -1.8 0-3.3-0.6-4.5-1.8C136.1 74.5 135.5 73 135.5 71.2zM138.3 71.2c0 1.2 0.3 2.1 1 2.8 0.7 0.7 1.5 1.1 2.6 1.1 1.1 0 2-0.3 2.6-1 0.6-0.7 1-1.6 1-2.8 0-1.2-0.3-2.1-1-2.8 -0.7-0.7-1.5-1.1-2.6-1.1 -1.1 0-1.9 0.4-2.6 1.1S138.3 70.1 138.3 71.2z" class="a"/><path d="M183.1 77c0 0.6 0 1.1-0.1 1.5 0 0.4-0.1 0.8-0.2 1.1 -0.2 0.9-0.6 1.7-1.2 2.3 -1.1 1.2-2.6 1.9-4.5 1.9 -1.6 0-2.9-0.4-4-1.3 -1.1-0.9-1.7-2.1-1.9-3.7h2.8c0.1 0.6 0.3 1 0.5 1.4 0.6 0.7 1.4 1.1 2.5 1.1 2 0 3-1.2 3-3.7v-1.7c-1.1 1.1-2.4 1.7-3.8 1.7 -1.6 0-3-0.6-4-1.8 -1.1-1.2-1.6-2.7-1.6-4.5 0-1.7 0.5-3.2 1.5-4.5 1.1-1.3 2.4-1.9 4.2-1.9 1.5 0 2.8 0.6 3.8 1.7v-1.4h2.8V77zM180.4 71.3c0-1.2-0.3-2.1-0.9-2.8 -0.6-0.7-1.4-1.1-2.4-1.1 -1.1 0-1.9 0.4-2.5 1.2 -0.6 0.7-0.8 1.6-0.8 2.7 0 1.1 0.3 2 0.8 2.7 0.6 0.8 1.4 1.1 2.5 1.1 1.1 0 1.9-0.4 2.5-1.2C180.1 73.3 180.4 72.4 180.4 71.3z" class="a"/><path d="M218.4 77c0 0.6 0 1.1-0.1 1.5 0 0.4-0.1 0.8-0.2 1.1 -0.2 0.9-0.6 1.7-1.2 2.3 -1.1 1.2-2.6 1.9-4.5 1.9 -1.6 0-2.9-0.4-4-1.3 -1.1-0.9-1.7-2.1-1.9-3.7h2.8c0.1 0.6 0.3 1 0.5 1.4 0.6 0.7 1.4 1.1 2.5 1.1 2 0 3-1.2 3-3.7v-1.7c-1.1 1.1-2.4 1.7-3.8 1.7 -1.6 0-3-0.6-4-1.8 -1.1-1.2-1.6-2.7-1.6-4.5 0-1.7 0.5-3.2 1.5-4.5 1.1-1.3 2.4-1.9 4.2-1.9 1.5 0 2.8 0.6 3.8 1.7v-1.4h2.8V77zM215.8 71.3c0-1.2-0.3-2.1-0.9-2.8 -0.6-0.7-1.4-1.1-2.4-1.1 -1.1 0-1.9 0.4-2.5 1.2 -0.6 0.7-0.8 1.6-0.8 2.7 0 1.1 0.3 2 0.8 2.7 0.6 0.8 1.4 1.1 2.5 1.1 1.1 0 1.9-0.4 2.5-1.2C215.5 73.3 215.8 72.4 215.8 71.3z" class="a"/><path d="M253.1 71.9h-8.6c0.1 1 0.4 1.8 1 2.4 0.6 0.6 1.3 0.9 2.2 0.9 0.7 0 1.3-0.2 1.7-0.5 0.4-0.3 1-0.9 1.5-1.8l2.3 1.3c-0.4 0.6-0.7 1.1-1.1 1.6s-0.8 0.8-1.3 1.1c-0.5 0.3-1 0.5-1.5 0.6 -0.5 0.1-1.1 0.2-1.7 0.2 -1.8 0-3.2-0.6-4.3-1.7 -1.1-1.2-1.6-2.7-1.6-4.6 0-1.9 0.5-3.4 1.6-4.6 1.1-1.2 2.5-1.7 4.2-1.7 1.8 0 3.2 0.6 4.2 1.7 1 1.1 1.5 2.7 1.5 4.6L253.1 71.9zM250.2 69.6c-0.4-1.5-1.3-2.2-2.8-2.2 -0.3 0-0.7 0.1-0.9 0.2 -0.3 0.1-0.6 0.3-0.8 0.4 -0.2 0.2-0.5 0.4-0.6 0.7 -0.2 0.3-0.3 0.6-0.4 0.9H250.2z" class="a"/><path d="M276.3 65.2h2.8v1.1c0.5-0.5 1-0.9 1.4-1.1 0.4-0.2 0.9-0.3 1.4-0.3 0.7 0 1.5 0.2 2.3 0.7l-1.3 2.5c-0.5-0.4-1-0.6-1.5-0.6 -1.5 0-2.3 1.1-2.3 3.4v6.2h-2.8V65.2z" class="a"/></svg>